<svg width="20" height="20" viewBox="0 0 20 20" fill="none" xmlns="http://www.w3.org/2000/svg">
<path d="M15 17.5H5.00001C4.53977 17.5 4.16667 17.1269 4.16667 16.6667L4.16667 3.33333C4.16667 2.8731 4.53977 2.5 5.00001 2.5L11.3026 2.5C11.5347 2.5 11.7563 2.59683 11.914 2.76716L15.6115 6.76038C15.7541 6.91442 15.8333 7.11662 15.8333 7.32656L15.8333 16.6667C15.8333 17.1269 15.4602 17.5 15 17.5Z" stroke="white" stroke-width="2" stroke-linecap="round" stroke-linejoin="round"/>
<path d="M7.5 14.1666H12.5" stroke="white" stroke-width="2" stroke-linecap="round" stroke-linejoin="round"/>
<path d="M7.5 11.6666H12.5" stroke="white" stroke-width="2" stroke-linecap="round" stroke-linejoin="round"/>
<path d="M15.8333 7.5L11.6667 7.5C11.2064 7.5 10.8333 7.1269 10.8333 6.66667L10.8333 2.5" stroke="white" stroke-width="2" stroke-linecap="round" stroke-linejoin="round"/>
</svg>
