<svg width="32" height="32" viewBox="0 0 32 32" fill="none" xmlns="http://www.w3.org/2000/svg">
<g opacity="0.2">
<path fill-rule="evenodd" clip-rule="evenodd" d="M8 10C6.896 10 6 9.104 6 8C6 6.896 6.896 6 8 6C9.104 6 10 6.896 10 8C10 9.104 9.104 10 8 10ZM8 4C5.791 4 4 5.791 4 8C4 10.209 5.791 12 8 12C10.209 12 12 10.209 12 8C12 5.791 10.209 4 8 4ZM30 17.128L24 11L14.059 21.111L10 17L2 24.337V4C2 2.896 2.896 2 4 2H28C29.104 2 30 2.896 30 4V17.128ZM30 28C30 29.104 29.104 30 28 30H22.832L15.464 22.535L24 13.999L30 19.999V28ZM4 30C2.896 30 2 29.104 2 28V27.061L9.94501 19.945L20.001 30H4ZM28 0H4C1.791 0 0 1.791 0 4V28C0 30.209 1.791 32 4 32H28C30.209 32 32 30.209 32 28V4C32 1.791 30.209 0 28 0Z" fill="white"/>
</g>
</svg>
