<svg width="83" height="24" viewBox="0 0 83 24" fill="none" xmlns="http://www.w3.org/2000/svg">
<path d="M11.7739 0.635879C11.8495 0.423098 12.1505 0.423097 12.2261 0.635879L14.207 6.20625C14.2547 6.34025 14.4077 6.40365 14.5362 6.3426L19.8757 3.80446C20.0797 3.7075 20.2925 3.92028 20.1955 4.12425L17.6574 9.46381C17.5963 9.59225 17.6597 9.74532 17.7937 9.79297L23.3641 11.7739C23.5769 11.8495 23.5769 12.1505 23.3641 12.2261L17.7937 14.207C17.6597 14.2547 17.5963 14.4077 17.6574 14.5362L20.1955 19.8757C20.2925 20.0797 20.0797 20.2925 19.8758 20.1955L14.5362 17.6574C14.4077 17.5963 14.2547 17.6597 14.207 17.7937L12.2261 23.3641C12.1505 23.5769 11.8495 23.5769 11.7739 23.3641L9.79297 17.7937C9.74532 17.6597 9.59225 17.5963 9.46381 17.6574L4.12425 20.1955C3.92029 20.2925 3.7075 20.0797 3.80446 19.8758L6.3426 14.5362C6.40365 14.4077 6.34025 14.2547 6.20625 14.207L0.635879 12.2261C0.423098 12.1505 0.423097 11.8495 0.635879 11.7739L6.20625 9.79297C6.34025 9.74532 6.40365 9.59225 6.3426 9.46381L3.80446 4.12425C3.7075 3.92029 3.92028 3.7075 4.12425 3.80446L9.46381 6.3426C9.59225 6.40365 9.74532 6.34025 9.79297 6.20625L11.7739 0.635879Z" fill="white"/>
<path d="M26.999 14.2588H28.9951C29.0407 14.6598 29.2503 14.9788 29.624 15.2158C29.9977 15.4528 30.4762 15.5713 31.0596 15.5713C31.5973 15.5713 32.0371 15.4551 32.3789 15.2227C32.7207 14.9857 32.8916 14.6803 32.8916 14.3066C32.8916 13.9922 32.7594 13.737 32.4951 13.541C32.2308 13.3451 31.7956 13.1833 31.1895 13.0557L29.9043 12.7822C28.1178 12.4085 27.2246 11.4697 27.2246 9.96582C27.2246 9.03613 27.5687 8.29102 28.2568 7.73047C28.945 7.16536 29.8587 6.88281 30.998 6.88281C32.0827 6.88281 32.9736 7.15853 33.6709 7.70996C34.3727 8.26139 34.7396 8.97689 34.7715 9.85645H32.8301C32.7799 9.46452 32.5885 9.15007 32.2559 8.91309C31.9232 8.67611 31.5085 8.55762 31.0117 8.55762C30.4922 8.55762 30.0752 8.66927 29.7607 8.89258C29.4508 9.11589 29.2959 9.41439 29.2959 9.78809C29.2959 10.0934 29.4212 10.3395 29.6719 10.5264C29.9271 10.7132 30.3441 10.8682 30.9229 10.9912L32.1123 11.2441C33.1012 11.4538 33.8213 11.7819 34.2725 12.2285C34.7236 12.6751 34.9492 13.2812 34.9492 14.0469C34.9492 15.0404 34.5915 15.8242 33.876 16.3984C33.165 16.9681 32.1898 17.2529 30.9502 17.2529C29.7744 17.2529 28.8311 16.984 28.1201 16.4463C27.4092 15.9085 27.0355 15.1794 26.999 14.2588ZM43.2412 17L42.4961 14.6484H39.0303L38.2715 17H36.2002L39.625 7.13574H42.0518L45.4766 17H43.2412ZM40.7119 9.18652L39.4746 13.0557H42.0586L40.835 9.18652H40.7119ZM53.6113 15.2021V17H47.1582V7.13574H49.2227V15.2021H53.6113ZM57.3916 7.13574V13.3838C57.3916 14.0127 57.5716 14.5094 57.9316 14.874C58.2962 15.2386 58.8044 15.4209 59.4561 15.4209C60.1123 15.4209 60.6204 15.2386 60.9805 14.874C61.3451 14.5094 61.5273 14.0127 61.5273 13.3838V7.13574H63.5918V13.5957C63.5918 14.694 63.2158 15.5781 62.4639 16.248C61.7165 16.918 60.7139 17.2529 59.4561 17.2529C58.2028 17.2529 57.2002 16.918 56.4482 16.248C55.7008 15.5781 55.3271 14.694 55.3271 13.5957V7.13574H57.3916ZM70.4551 17H68.3906V8.89941H65.4307V7.13574H73.415V8.89941H70.4551V17ZM81.7754 15.2363V17H75.2402V7.13574H81.7754V8.89941H77.3047V11.2031H81.5225V12.8369H77.3047V15.2363H81.7754Z" fill="white"/>
</svg>
