<svg width="14" height="14" viewBox="0 0 14 14" fill="none" xmlns="http://www.w3.org/2000/svg">
<path d="M10.4685 6.65558L4.30521 1.84171C4.28911 1.82903 4.26975 1.82115 4.24937 1.81897C4.22899 1.8168 4.20841 1.82042 4.18999 1.82941C4.17157 1.83841 4.15607 1.85241 4.14525 1.86982C4.13444 1.88724 4.12875 1.90734 4.12885 1.92784V2.98468C4.12885 3.05167 4.16029 3.11593 4.21224 3.15694L9.13411 7.00011L4.21224 10.8433C4.15892 10.8843 4.12885 10.9485 4.12885 11.0155V12.0724C4.12885 12.164 4.23412 12.2146 4.30521 12.1585L10.4685 7.34464C10.5209 7.30378 10.5632 7.25151 10.5924 7.19181C10.6215 7.13211 10.6367 7.06654 10.6367 7.00011C10.6367 6.93367 10.6215 6.86811 10.5924 6.80841C10.5632 6.74871 10.5209 6.69644 10.4685 6.65558Z" fill="white" fill-opacity="0.85"/>
</svg>
