<svg width="12" height="12" viewBox="0 0 12 12" fill="none" xmlns="http://www.w3.org/2000/svg">
<path fill-rule="evenodd" clip-rule="evenodd" d="M1.09706 5.29477C4.12334 3.86288 6.14132 2.91889 7.15103 2.46281C10.0339 1.16058 10.633 0.934368 11.0234 0.926898C11.1093 0.925256 11.3013 0.948368 11.4257 1.05797C11.5307 1.15052 11.5596 1.27553 11.5734 1.36328C11.5873 1.45102 11.6045 1.65091 11.5908 1.80709C11.4346 3.58974 10.7586 7.91576 10.4147 9.91235C10.2692 10.7572 9.98264 11.0405 9.70524 11.0682C9.1024 11.1284 8.64462 10.6355 8.06074 10.2199C7.14708 9.56943 6.63092 9.16454 5.74405 8.52985C4.71912 7.79635 5.38354 7.3932 5.96764 6.73435C6.12051 6.56193 8.77665 3.93819 8.82806 3.70017C8.83449 3.67041 8.84046 3.55945 8.77976 3.50085C8.71906 3.44226 8.62947 3.4623 8.56482 3.47823C8.47319 3.50082 7.0136 4.54852 4.18606 6.62134C3.77176 6.93029 3.3965 7.08083 3.06028 7.07294C2.68962 7.06424 1.97663 6.84534 1.4466 6.65823C0.796486 6.42873 0.279791 6.30739 0.324783 5.91763C0.348218 5.71462 0.605645 5.507 1.09706 5.29477Z" fill="#898989"/>
</svg>
